<svg version="1.1"
	 xmlns="http://www.w3.org/2000/svg" xmlns:xlink="http://www.w3.org/1999/xlink" xmlns:a="http://ns.adobe.com/AdobeSVGViewerExtensions/3.0/"
	 x="0px" y="0px" width="962.9px" height="150px" viewBox="0 0 962.9 150" style="enable-background:new 0 0 962.9 150;"
	 xml:space="preserve">
<style type="text/css">
	.st0{fill:#FFFFFF;}
</style>
<defs>
</defs>
<path class="st0" d="M18.5,51.7L0,146.9h28.3l9.3-47.6c0,0,6.1-26.6,44-19.8c2.4-12.3,5.9-30.4,5.9-30.4S55.8,48,42.2,75.3
	c2.5-12.7,4.6-23.7,4.6-23.7H18.5z"/>
<path class="st0" d="M194.9,106.9c0,0,0-13.5,0-23c0-6.8-5-34.8-44-34.8c-39,0-63.5,30.3-63.5,55.6s5,42.2,47,42.2
	s52.5-28.5,52.5-28.5h-31.4c0,0,1.6,14.8-21.6,14.8s-17-26.2-17-26.2H194.9z M148.8,65.8c22.3,0,14.9,24.8,14.9,24.8h-20.1h-21.4
	C122.2,90.6,126.4,65.8,148.8,65.8z"/>
<path class="st0" d="M786.5,51.7L768,146.9h28.3l9.3-47.6c0,0,6.1-26.6,44-19.8c2.4-12.3,5.9-30.4,5.9-30.4s-31.6-1.1-45.2,26.3
	c2.5-12.7,4.6-23.7,4.6-23.7H786.5z"/>
<path class="st0" d="M962.9,106.9c0,0,0-13.5,0-23c0-6.8-5-34.8-44-34.8c-39,0-63.5,30.3-63.5,55.6s5,42.2,47,42.2
	s52.5-28.5,52.5-28.5h-31.4c0,0,1.6,14.8-21.6,14.8s-17-26.2-17-26.2H962.9z M916.8,65.8c22.3,0,14.9,24.8,14.9,24.8h-20.1h-21.4
	C890.2,90.6,894.4,65.8,916.8,65.8z"/>
<path class="st0" d="M271.5,49.1c-46.9,0-54.7,32.6-54.7,32.6h30c0,0,2-15.8,21.1-15.8c19.1,0,12.4,24.8,12.4,24.8s-30.3,0-38.5,0
	s-39.7,6.2-39.7,35.5s55.4,32.4,71.3,4.6l-3.1,16.2h28.6c0,0,10.9-56,12.5-64.1C312.9,74.8,318.5,49.1,271.5,49.1z M232,120.9
	c0-20.6,43-19,43-19C277.5,131.7,232,141.5,232,120.9z"/>
<path class="st0" d="M426.5,0l-13,66.9c0,0-11.3-17.9-31.3-17.9s-56.7,14-56.7,60.5s48.7,52.2,75.8,20.3c-1.9,9.6-3.3,17.1-3.3,17.1
	h30.3L456.8,0H426.5z M404.4,99.5c-1.5,32.8-48.5,42.2-47.5,7.4s25.2-38.3,31.5-38.2S405.9,66.7,404.4,99.5z"/>
<path class="st0" d="M470,51.7l-18.5,95.2h30.2l9-47.6c0,0,7.5-33.8,27.7-29.4c20.2,4.4,9.3,33.2,9.3,33.2l-8.5,43.9h30.5l10.9-56.3
	c0,0,9.4-24.1,25.2-21.1c15.8,3,14.4,12.7,12.3,22.4c-2.1,9.7-10.9,55-10.9,55h30.2l13.1-67.6c0,0,8-30.2-28.1-30.2
	s-37,17.4-37,17.4s-6.8-17.4-27.1-17.4S497.9,62.1,496.5,69c3-15.2,3.4-17.3,3.4-17.3H470z"/>
<path class="st0" d="M712.7,49.1c-16.3,0-64.6,8.2-69.3,58.5c-3,31.7,18.5,42.4,49.1,42.4c0,0,63.8-1.3,67.9-62.1
	C762.3,58.6,729,49.1,712.7,49.1z M726,86.6c-1.4,19.1-8.7,46.7-30.7,45.7s-20.7-21-19-30.7c1.7-9.7,13.3-36.7,32.7-35.3
	C725.8,67.4,726.7,76.8,726,86.6z"/>
</svg>
