<?xml version="1.0" encoding="utf-8"?>
<!-- Generator: Adobe Illustrator 19.0.1, SVG Export Plug-In . SVG Version: 6.00 Build 0)  -->
<!DOCTYPE svg PUBLIC "-//W3C//DTD SVG 1.1//EN" "http://www.w3.org/Graphics/SVG/1.1/DTD/svg11.dtd">
<svg version="1.1" id="Ebene_1" xmlns="http://www.w3.org/2000/svg" xmlns:xlink="http://www.w3.org/1999/xlink" x="0px" y="0px"
	 viewBox="60 223.3 962.9 150" style="enable-background:new 60 223.3 962.9 150;" xml:space="preserve">
<style type="text/css">
	.st0{fill:#FFFFFF;}
</style>
<path class="st0" d="M78.5,275L60,370.2h28.3l9.3-47.6c0,0,6.1-26.6,44-19.8c2.4-12.3,5.9-30.4,5.9-30.4s-31.7-1.1-45.3,26.2
	c2.5-12.7,4.6-23.7,4.6-23.7H78.5V275z"/>
<path class="st0" d="M254.9,330.2c0,0,0-13.5,0-23c0-6.8-5-34.8-44-34.8s-63.5,30.3-63.5,55.6c0,25.3,1.4,42.2,47,42.2
	s57.4-28.5,57.4-28.5h-28.3c0,0-6.8,13.4-30,13.4s-16.6-24.8-16.6-24.8h78V330.2z M208.8,289.1c22.3,0,14.9,24.8,14.9,24.8h-20.1
	h-21.4C182.2,313.9,186.4,289.1,208.8,289.1z"/>
<path class="st0" d="M846.5,275L828,370.2h28.3l9.3-47.6c0,0,6.1-26.6,44-19.8c2.4-12.3,5.9-30.4,5.9-30.4s-31.6-1.1-45.2,26.3
	c2.5-12.7,4.6-23.7,4.6-23.7S846.5,275,846.5,275z"/>
<path class="st0" d="M331.5,272.4c-46.9,0-54.7,32.6-54.7,32.6h30c0,0,2-15.8,21.1-15.8s12.4,24.8,12.4,24.8s-30.3,0-38.5,0
	s-39.7,6.2-39.7,35.5c0,29.3,55.4,32.4,71.3,4.6l-3.1,16.2h28.6c0,0,10.9-56,12.5-64.1C372.9,298.1,378.5,272.4,331.5,272.4z
	 M292,344.2c0-20.6,43-19,43-19C337.5,355,292,364.8,292,344.2z"/>
<path class="st0" d="M486.5,223.3l-13,66.9c0,0-11.3-17.9-31.3-17.9s-56.7,14-56.7,60.5s48.7,52.2,75.8,20.3
	c-1.9,9.6-3.3,17.1-3.3,17.1h30.3l28.5-146.9H486.5z M464.4,322.8c-1.5,32.8-48.5,42.2-47.5,7.4s25.2-38.3,31.5-38.2
	C454.7,292.1,465.9,290,464.4,322.8z"/>
<path class="st0" d="M530,275l-18.5,95.2h30.2l9-47.6c0,0,7.5-33.8,27.7-29.4s9.3,33.2,9.3,33.2l-8.5,43.9h30.5l10.9-56.3
	c0,0,9.4-24.1,25.2-21.1s14.4,12.7,12.3,22.4c-2.1,9.7-10.9,55-10.9,55h30.2l13.1-67.6c0,0,8-30.2-28.1-30.2s-37,17.4-37,17.4
	s-6.8-17.4-27.1-17.4s-40.4,12.9-41.8,19.8c3-15.2,3.4-17.3,3.4-17.3H530z"/>
<path class="st0" d="M772.7,272.4c-16.3,0-64.6,8.2-69.3,58.5c-3,31.7,18.5,42.4,49.1,42.4c0,0,63.8-1.3,67.9-62.1
	C822.3,281.9,789,272.4,772.7,272.4z M786,309.9c-1.4,19.1-8.7,46.7-30.7,45.7s-20.7-21-19-30.7c1.7-9.7,13.3-36.7,32.7-35.3
	C785.8,290.7,786.7,300.1,786,309.9z"/>
<path class="st0" d="M1022.9,330.2c0,0,0-13.5,0-23c0-6.8-5-34.8-44-34.8s-63.5,30.3-63.5,55.6c0,25.3,1.4,42.2,47,42.2
	s57.4-28.5,57.4-28.5h-28.3c0,0-6.8,13.4-30,13.4s-16.6-24.8-16.6-24.8h78V330.2z M976.8,289.1c22.3,0,14.9,24.8,14.9,24.8h-20.1
	h-21.4C950.2,313.9,954.4,289.1,976.8,289.1z"/>
</svg>
